PathFileType	4	(X/Y/Z)	C:\Users\WrightLab\Desktop\Jo\P1.2Trial19.trc
DataRate	CameraRate	NumFrames	NumMarkers	Units	OrigDataRate	OrigDataStartFrame	OrigNumFrames
100.00	100.00	       15	19	mm	100.00	315	       629
Frame#	Time	Headset_Front			Headset_Back			Headset_Left			Headset_Right			Left_Shoulder			Right_Shoulder			Sternum			C7			Left Elbow			Right Elbow			Left Wrist			Right Wrist			Left ASIS			Right ASIS			S2			Left Knee			Right Knee			Left Ankle			Right Ankle			
		X1	Y1	Z1	X2	Y2	Z2	X3	Y3	Z3	X4	Y4	Z4	X5	Y5	Z5	X6	Y6	Z6	X7	Y7	Z7	X8	Y8	Z8	X9	Y9	Z9	X10	Y10	Z10	X11	Y11	Z11	X12	Y12	Z12	X13	Y13	Z13	X14	Y14	Z14	X15	Y15	Z15	X16	Y16	Z16	X17	Y17	Z17	X18	Y18	Z18	X19	Y19	Z19	

315	3.140	58.39400	1366.01965	1075.67358	-74.97554	1519.82861	847.35858	78.56663	1453.09668	883.75995	-82.90001	1408.09595	1043.28809	123.25164	1239.97742	743.00214	-211.06409	1244.75696	1003.73560	27.40874	1183.39368	967.90509	-116.04038	1305.73157	781.99988	141.91946	955.24426	660.12854	-274.61438	988.35742	1008.93701	250.41789	745.74487	707.01495	-254.57631	737.88879	1104.49744	140.33983	876.83795	897.82239	-92.93320	859.44598	1029.98132	-114.56940	903.45789	721.53333	185.04976	499.23630	968.83868	-141.87807	412.84863	979.70856	227.38383	145.76900	941.50421	-281.73599	180.96426	749.38837	
316	3.150	64.69872	1365.96277	1083.15662	-67.00829	1522.75146	855.80090	85.96281	1454.07837	893.06342	-76.18855	1409.29553	1051.45593	131.66832	1241.34082	754.21112	-205.27069	1247.25879	1011.30566	32.85417	1184.83911	976.59497	-108.75098	1308.25085	790.30365	154.44206	957.76147	672.00238	-269.06546	991.21375	1015.76605	263.21567	748.42383	722.39453	-250.74803	740.87891	1109.05408	148.48088	878.75769	907.04498	-86.93373	861.08563	1038.12305	-107.12505	905.03052	728.69342	192.48625	500.60773	977.04456	-128.48215	414.09421	996.96478	227.99002	143.02222	943.02026	-264.84369	188.80717	761.76068	
317	3.160	71.20795	1366.20996	1092.17542	-59.56578	1524.67065	864.75183	93.32770	1454.52258	902.68939	-69.27104	1410.29395	1060.14124	139.25047	1242.90698	763.57172	-199.38016	1250.40796	1018.60706	37.67684	1185.90955	985.71222	-101.28701	1310.43323	797.59937	166.50888	958.67145	682.66473	-264.42712	994.39526	1023.46948	276.18872	750.94055	737.07037	-246.31384	744.06384	1114.53809	155.44675	880.98499	916.81073	-82.98293	862.02051	1044.97278	-99.88754	907.12451	735.71893	198.45702	500.09860	982.40924	-117.81216	417.21426	1014.97650	228.12567	139.78600	943.39667	-246.77808	196.03116	774.75995	
318	3.170	76.53612	1366.44092	1101.81738	-52.30205	1526.90454	873.97168	100.50287	1456.00854	912.10602	-63.49172	1411.76855	1068.88818	147.08583	1244.52930	773.93915	-193.69077	1252.12720	1025.03333	42.15711	1187.67126	994.51178	-94.00884	1312.49268	804.78888	178.77527	960.45447	694.55463	-259.47076	996.89490	1031.83118	289.13510	754.00586	751.68390	-241.90887	746.79742	1120.60364	163.60689	883.13013	927.08038	-79.31712	864.20111	1051.89233	-92.16029	908.81293	741.91101	204.96231	499.48111	986.99603	-106.84391	420.47958	1033.96472	227.80443	137.35568	944.11285	-228.61945	202.40520	788.53363	
319	3.180	82.08488	1366.01221	1109.92212	-45.78113	1530.51917	883.72546	107.43443	1456.86487	922.07617	-57.40074	1412.77478	1077.06018	154.73849	1246.11206	784.96021	-189.96796	1255.80652	1032.90698	46.98796	1188.82715	1003.08258	-87.00233	1314.86597	812.44666	192.00186	962.56940	705.48096	-254.98671	998.89618	1039.63208	302.04132	757.17755	767.59949	-237.04637	749.35352	1127.45715	170.34225	884.02966	936.70648	-77.56231	866.22296	1059.62488	-85.36377	911.05286	748.03900	210.52112	498.91223	991.56683	-96.01020	424.06351	1053.33813	226.90421	134.24323	944.84631	-209.80222	208.12971	803.28680	
320	3.190	87.13240	1366.38892	1119.38123	-38.48151	1532.51758	893.05927	113.79283	1458.73267	931.20331	-52.23976	1414.29138	1085.92761	161.55853	1247.94702	795.25549	-184.84172	1256.61658	1037.80334	50.81697	1190.37024	1012.15601	-79.94568	1317.31213	819.89258	203.54713	963.62268	719.44202	-251.27888	1001.25360	1047.50769	314.82114	760.75726	783.12360	-233.23982	752.62518	1136.23560	176.78253	885.77649	946.74615	-75.65042	866.55042	1064.42346	-78.07999	913.25934	754.28430	214.11732	498.42593	996.53784	-84.63629	428.72144	1073.32178	226.08054	131.68736	945.70306	-191.15576	212.68359	817.68433	
321	3.200	92.61411	1367.10181	1128.76746	-31.71968	1534.87598	902.39435	119.89645	1459.69421	940.52051	-46.94506	1415.10779	1094.66846	168.67093	1249.36230	804.65137	-180.68454	1258.75891	1043.55505	54.79904	1191.67749	1021.29022	-73.13346	1319.96484	827.42474	215.84099	965.71112	731.56213	-248.06693	1003.70630	1054.80371	327.44699	764.03796	798.09546	-229.55516	755.21521	1144.85193	182.97998	888.38995	956.95459	-74.37129	868.26428	1071.24548	-70.86644	916.32837	760.88409	216.42860	498.59448	1001.74622	-74.58762	434.87625	1093.68713	224.98892	129.25514	944.50995	-173.11208	216.16422	833.70178	
322	3.210	96.67428	1367.46350	1137.55408	-25.90612	1537.37427	912.15649	125.65586	1461.81567	950.87201	-41.36268	1416.55713	1103.01575	175.53334	1251.34985	815.46179	-176.94524	1260.59094	1049.53687	58.73785	1193.60498	1030.00757	-66.25912	1322.55188	835.13269	227.94731	967.92926	743.43988	-244.87326	1006.04492	1061.62500	339.57480	767.59241	813.52448	-226.10672	758.20636	1154.22839	189.88535	889.77429	966.55316	-73.56392	869.80450	1078.07727	-63.43431	919.70581	767.79578	218.21333	498.30649	1007.71820	-63.74753	442.41187	1113.01733	223.84155	127.99111	943.88953	-153.93922	217.98209	850.22308	
323	3.220	100.76430	1367.84875	1145.95776	-18.08204	1538.53491	922.00891	131.62099	1463.31274	960.31665	-36.86950	1417.72498	1111.78210	182.79341	1253.42542	825.89557	-172.79378	1262.43738	1054.67297	62.55260	1195.60938	1039.04419	-59.41134	1325.10950	842.52417	239.35588	970.38531	757.28668	-242.59906	1008.55707	1068.38928	351.73306	771.25842	829.98450	-222.95100	760.89581	1164.08826	194.58916	892.02722	976.31024	-71.74876	871.54034	1085.97815	-56.95563	922.65222	774.41388	219.71466	496.53821	1013.72455	-53.62521	450.54904	1131.33423	221.33589	127.14447	940.84906	-134.59517	218.48933	867.05505	
324	3.230	104.93878	1368.39624	1155.76477	-12.11262	1541.09143	931.53125	137.13991	1464.97107	970.79529	-32.95740	1418.76331	1120.44348	189.38913	1255.93152	835.51746	-170.15047	1264.82141	1060.07312	66.00737	1197.20557	1048.25342	-52.73964	1327.65002	850.25714	250.67857	973.18854	770.24469	-240.22246	1011.04059	1074.28174	363.58151	775.95496	846.19324	-219.65503	763.40637	1172.85657	200.40199	895.51288	987.72760	-69.62857	873.02887	1092.35339	-49.32315	925.26361	781.33435	221.48207	495.17285	1019.18842	-44.11526	459.60126	1148.78113	219.40125	127.62206	939.14252	-113.61946	218.32043	884.89178	
325	3.240	108.38278	1368.85840	1164.70276	-6.38309	1543.40796	940.88098	142.63609	1466.42664	980.84094	-28.21265	1419.65503	1128.59973	195.45561	1258.32947	845.95435	-166.49408	1267.50769	1065.39539	68.97643	1199.38354	1056.71887	-46.11034	1329.98755	857.67438	261.94687	976.18604	782.57581	-238.45447	1013.77264	1079.98889	374.56857	780.32416	862.24689	-216.62186	766.20459	1182.28699	204.71329	897.52393	996.72015	-66.85396	875.39795	1100.31531	-42.75554	927.91058	788.47827	223.32196	493.07758	1023.13129	-34.45070	467.60464	1161.72583	218.31255	128.34084	939.62115				
326	3.250	112.24502	1369.41455	1173.81714	-2.05149	1546.44153	950.14471	147.60538	1468.44043	990.91486	-25.12984	1421.29126	1137.39270	201.88733	1260.71765	856.38336	-164.24120	1269.15552	1070.89941	72.77831	1201.79810	1065.54041	-39.90713	1332.73999	864.48602	272.07114	978.87500	795.95593	-236.23357	1016.42859	1084.59460	385.25525	784.63049	878.66504	-214.36481	769.27423	1190.91431	208.37698	899.88214	1006.97174	-63.84841	876.45264	1107.10022	-36.49955	930.09528	795.33478	225.33572	491.22052	1026.30725	-27.08191	472.88617	1174.95105	218.56601	129.27003	939.39209	-74.75889	215.35526	923.27673	
327	3.260	115.53600	1370.71960	1183.65833	3.62672	1548.16296	959.39795	152.08664	1469.66492	1001.10156	-21.15036	1421.85706	1145.90088	208.78658	1263.06897	867.18134	-161.22762	1271.75781	1076.30518	76.49326	1203.51648	1074.48218	-33.33437	1334.59558	871.89771	281.49173	981.89343	808.48303	-234.26643	1018.77710	1088.70349	395.28818	789.90576	894.76245	-209.23914	771.76410	1199.66772	213.90332	902.67035	1017.80835	-60.48219	878.79706	1116.25281	-30.80090	932.38416	802.53870	227.89709	489.69244	1029.00476	-19.50836	478.32874	1187.53552	219.10669	130.18008	940.17371	-56.05712	211.13158	944.65717	
328	3.270	118.28164	1370.71765	1192.92126	8.67645	1549.95813	968.60620	157.09566	1471.76196	1011.94232	-17.96336	1423.04944	1154.59253	214.85242	1264.92053	877.87439	-160.19026	1275.31104	1083.11389	79.35563	1205.53772	1083.65991	-27.13283	1336.67273	879.95642	290.85965	985.30829	821.18744	-232.65308	1020.74670	1092.50818	403.07272	793.40326	910.64954	-206.70889	775.66309	1208.40234	214.21321	902.86456	1024.05237	-56.72405	881.23932	1124.04639	-24.83988	934.32520	809.61633	229.15030	486.35028	1030.99377	-12.77656	486.53140	1200.98865	219.34087	130.03723	940.29553	-37.50915	207.54268	967.59552	
329	3.280	120.75771	1371.79626	1202.74475	14.36616	1550.38599	978.24933	161.36290	1472.49280	1021.74701	-14.29851	1423.72900	1162.70837	220.84824	1267.80200	889.00378	-155.82661	1275.82446	1087.19507	83.53825	1207.52356	1093.01501	-21.18154	1338.28943	887.87524	299.49350	987.91541	834.14166	-230.83522	1023.61481	1095.92590	412.41684	798.36707	927.57715	-204.34399	777.87250	1216.25830	217.51045	903.48151	1033.27368	-54.04801	882.65656	1132.85852	-19.62346	935.46838	816.78271	231.04668	485.12805	1034.45032	-7.35866	493.60147	1213.28479	219.28940	129.49091	940.14545	-19.59558	202.33273	983.98187	
